<svg fill="#FFFFFF" xmlns="http://www.w3.org/2000/svg" xmlns:xlink="http://www.w3.org/1999/xlink" version="1.1" x="0px" y="0px" viewBox="0 0 100 100" style="enable-background:new 0 0 100 100;" xml:space="preserve"><g><path d="M80.9,26.6C72.6,20.4,61.5,17,49.8,17S27,20.4,18.6,26.6C10.1,33,5.4,41.5,5.4,50.5c0,6.7,2.6,13.2,7.5,18.7   c-1.1,2.3-2.9,4.2-4.9,5c-1.5,0.6-2.4,1.7-2.5,3C5.4,78.6,6.1,80,7.6,81c3.1,2,9.8,2.7,18.6-2c7.1,3.3,15.2,5.1,23.6,5.1   c11.8,0,22.8-3.4,31.2-9.6c8.5-6.3,13.2-14.8,13.2-23.9S89.5,33,80.9,26.6z M49.8,80c-8.2,0-16-1.8-22.7-5.1l-1-0.5l-0.9,0.5   c-8,4.5-13.3,3.7-15.1,2.8c3.2-1.5,5.8-4.6,7.1-8.2l0.4-1.2l-0.9-0.9c-4.8-5-7.3-10.8-7.3-16.9C9.4,34.2,27.5,21,49.7,21   S90,34.2,90,50.5C90.1,66.8,72,80,49.8,80z"></path></g><path d="M61.2,46.2V41c0-6.2-5-11.2-11.2-11.2s-11.2,5-11.2,11.2v5.2c-1.8,0.6-3.2,2.3-3.2,4.3v13.3c0,2.5,2,4.5,4.5,4.5h19.7  c2.5,0,4.5-2,4.5-4.5V50.5C64.3,48.5,63,46.8,61.2,46.2z M54.6,62.6c-0.1,0.2-0.3,0.3-0.5,0.3L45.9,63c0,0,0,0,0,0  c-0.2,0-0.4-0.1-0.5-0.3c-0.1-0.2-0.1-0.4,0-0.6l2.5-5.5c-0.7-0.6-1.1-1.5-1.1-2.5c0-1.9,1.5-3.4,3.4-3.4s3.4,1.5,3.4,3.4  c0,1-0.4,1.8-1.1,2.5l2.3,5.4C54.8,62.2,54.7,62.4,54.6,62.6z M56.7,46H43.3v-5c0-3.7,3-6.7,6.7-6.7s6.7,3,6.7,6.7V46z"></path></svg>